<?xml version="1.0" encoding="UTF-8" standalone="no"?>
<svg
   width="967"
   height="428"
   viewBox="0 0 967 428"
   fill="none"
   version="1.1"
   id="svg7"
   sodipodi:docname="logo.svg"
   inkscape:version="1.4 (86a8ad7, 2024-10-11)"
   xmlns:inkscape="http://www.inkscape.org/namespaces/inkscape"
   xmlns:sodipodi="http://sodipodi.sourceforge.net/DTD/sodipodi-0.dtd"
   xmlns:xlink="http://www.w3.org/1999/xlink"
   xmlns="http://www.w3.org/2000/svg"
   xmlns:svg="http://www.w3.org/2000/svg">
  <defs
     id="defs7">
    <pattern
       inkscape:collect="always"
       xlink:href="#pattern17"
       preserveAspectRatio="xMidYMid"
       id="pattern25"
       patternTransform="matrix(60.259572,0,0,4.5046171,-18410.025,-375.69257)" />
    <pattern
       inkscape:collect="always"
       xlink:href="#pattern17"
       preserveAspectRatio="xMidYMid"
       id="pattern24"
       patternTransform="matrix(77.682995,0,0,6.3558559,-11957.913,-653.37838)" />
    <pattern
       inkscape:collect="always"
       xlink:href="#pattern17"
       preserveAspectRatio="xMidYMid"
       id="pattern23"
       patternTransform="matrix(66.248874,0,0,3.7423423,-13235.268,-278.77477)" />
    <pattern
       inkscape:collect="always"
       xlink:href="#pattern17"
       preserveAspectRatio="xMidYMid"
       id="pattern22"
       patternTransform="matrix(78.771959,0,0,2.8711712,-20267.797,-165.52252)" />
    <pattern
       inkscape:collect="always"
       xlink:href="#pattern17"
       preserveAspectRatio="xMidYMid"
       id="pattern21"
       patternTransform="matrix(57.537162,0,0,6.9003378,-11107.432,-98.006757)" />
    <pattern
       inkscape:collect="always"
       xlink:href="#pattern17"
       preserveAspectRatio="xMidYMid"
       id="pattern20"
       patternTransform="matrix(109.80743,0,0,16.80991,-35576.453,-1629.0901)" />
    <pattern
       inkscape:collect="always"
       xlink:href="#pattern17"
       preserveAspectRatio="xMidYMid"
       id="pattern19"
       patternTransform="matrix(4.3140484,0,0,1.1288288,-883.9665,130.67568)" />
    <pattern
       inkscape:collect="always"
       xlink:href="#Strips1_1"
       preserveAspectRatio="xMidYMid"
       id="pattern17"
       patternTransform="scale(2)" />
    <pattern
       inkscape:collect="always"
       patternUnits="userSpaceOnUse"
       width="2"
       height="10"
       patternTransform="translate(0,0) scale(2,2)"
       preserveAspectRatio="xMidYMid"
       id="Strips1_1"
       style="fill:#000000"
       inkscape:stockid="Stripes 01 (1:1)"
       inkscape:isstock="true"
       inkscape:label="Rayures 1:1">
      <rect
   style="stroke:none"
   x="0"
   y="-0.5"
   width="1"
   height="11"
   id="rect134" />

    </pattern>
    <clipPath
       clipPathUnits="userSpaceOnUse"
       id="clipPath5">
      <rect
         style="fill:#000000;stroke:#000000;stroke-width:0;stroke-linejoin:bevel;paint-order:stroke markers fill;stop-color:#000000"
         id="rect5-4"
         width="20"
         height="200"
         x="530"
         y="595" />
    </clipPath>
    <linearGradient
       id="swatch7"
       inkscape:swatch="solid">
      <stop
         style="stop-color:#000000;stop-opacity:1;"
         offset="0"
         id="stop7" />
    </linearGradient>
  </defs>
  <sodipodi:namedview
     id="namedview7"
     pagecolor="#ffffff"
     bordercolor="#000000"
     borderopacity="0.25"
     inkscape:showpageshadow="2"
     inkscape:pageopacity="0.0"
     inkscape:pagecheckerboard="0"
     inkscape:deskcolor="#d1d1d1"
     inkscape:zoom="0.91830403"
     inkscape:cx="716.53829"
     inkscape:cy="267.34065"
     inkscape:window-width="1920"
     inkscape:window-height="1009"
     inkscape:window-x="-8"
     inkscape:window-y="-8"
     inkscape:window-maximized="1"
     inkscape:current-layer="svg7" />
  <g
     id="g7"
     style="fill:url(#pattern17);fill-opacity:1">
    <path
       d="m 750.129,301.65 c 5.635,9.66 19.296,10.45 26.006,1.503 L 778.2,300.4 c 1.168,-1.558 1.90987,-3.4561 1.8,-5.4 -0.24952,-4.4149 -31.9108,-0.19797 -32,0.446 v 0 c 0,1.673 0.444,3.315 1.287,4.76 z"
       fill="#4f4f4f"
       id="path1"
       style="fill:url(#pattern19);fill-opacity:1;stroke:#000000;stroke-width:10;stroke-dasharray:none;stroke-opacity:1;paint-order:markers stroke fill"
       sodipodi:nodetypes="cccssscc" />
    <path
       d="m 790.566,297 c 2.933,0 5.843,-0.516 8.598,-1.525 L 950.5983,240.008 C 960.4496,236.399 967,227.024 967,216.533 V 113.5 c 0,-3.038 -2.46243,-5.5 -5.5,-5.5 v 0 c -3.03757,0 -5.5,-2.462 -5.5,-5.5 V 98 c 0,-5.5228 -4.4772,-10 -10,-10 h -4.0468 c -4.9342,0 -9.5065,2.5888 -12.0451,6.8198 l -0.3338,0.5563 c -4.1607,6.9349 -13.2006,9.1079 -20.0584,4.8209 v 0 C 907.2183,98.7614 904.5634,98 901.8539,98 H 896 c -5.5228,0 -10,-4.4772 -10,-10 v 0 c 0,-5.5228 -4.4772,-10 -10,-10 H 127.493 c -7.699,0 -12.454,8.3985 -8.493,15 v 0 c 3.961,6.6015 -0.794,15 -8.493,15 H 91.374 c -3.525,0 -6.991,-0.898 -10.071,-2.61 l -6.827,-3.792 C 70.479,99.3773 68,95.164 68,90.5913 v 0 C 68,83.6373 62.363,78 55.409,78 H 51.62 C 44.098,78 38,84.0981 38,91.6205 v 0 c 0,4.0423 -1.795,7.8757 -4.901,10.4635 L 32,103 c -3.802,3.168 -6,7.861 -6,12.81 V 221 c 0,7.18 -5.82,13 -13,13 v 0 c -7.18,0 -13,5.82 -13,13 v 52 c 0,13.807 11.193,25 25,25 h 138.5 c 7.456,0 13.5,-6.044 13.5,-13.5 v 0 c 0,-7.456 6.044,-13.5 13.5,-13.5 z"
       fill="#4f4f4f"
       id="path2"
       style="fill:url(#pattern20);fill-opacity:1;stroke:#000000;stroke-width:10;stroke-dasharray:none;stroke-opacity:1;paint-order:markers fill stroke" />
    <path
       d="M 623.724,328.965 C 618.91,325.871 616,320.541 616,314.818 v 0 C 616,305.53 623.53,298 632.818,298 h 38.121 c 9.423,0 17.061,7.638 17.061,17.061 v 0 c 0,5.598 -2.747,10.841 -7.35,14.027 l -14.692,10.172 c -2.479,1.716 -3.958,4.539 -3.958,7.553 V 347 c 0,4.971 -4.029,9 -9,9 v 0 c -4.971,0 -9,-4.066 -9,-9.036 v 0 c 0,-3.081 -1.567,-5.971 -4.159,-7.638 z"
       fill="#4f4f4f"
       id="path3"
       style="fill:url(#pattern25);fill-opacity:1;stroke:#000000;stroke-width:10;stroke-dasharray:none;stroke-opacity:1;paint-order:markers fill stroke"
       sodipodi:nodetypes="cssssssccsssssscc" />
    <path
       d="M 308.724,328.965 C 303.91,325.871 301,320.541 301,314.818 v 0 C 301,305.53 308.53,298 317.818,298 h 38.121 c 9.423,0 17.061,7.638 17.061,17.061 v 0 c 0,5.598 -2.747,10.841 -7.35,14.027 l -14.692,10.172 c -2.479,1.716 -3.958,4.539 -3.958,7.553 V 347 c 0,4.971 -4.029,9 -9,9 v 0 c -4.971,0 -9,-4.066 -9,-9.036 v 0 c 0,-3.081 -1.567,-5.971 -4.159,-7.638 z"
       fill="#4f4f4f"
       id="path4"
       style="fill:url(#pattern24);fill-opacity:1;stroke:#000000;stroke-width:10;stroke-dasharray:none;stroke-opacity:1;paint-order:markers fill stroke"
       sodipodi:nodetypes="cssssssccsssssscc" />
    <path
       d="m 364,63 c -2.518,1.8885 -4,4.8524 -4,8 v 0.3333 C 360,77.2244 364.776,82 370.667,82 h 75.444 C 451.573,82 456,77.5727 456,72.1115 v 0 c 0,-3.7455 -2.116,-7.1696 -5.466,-8.8446 L 450,63 c -3.677,-1.8386 -6,-5.597 -6,-9.7082 V 23.0085 C 444,10.3013 433.699,0 420.991,0 h -52.02 c -6.463,0 -9.086,8.31979 -3.791,12.0262 v 0 c 1.768,1.2371 2.82,3.2585 2.82,5.4156 V 55 c 0,3.1476 -1.482,6.1115 -4,8 z"
       fill="#4f4f4f"
       id="path5"
       style="fill:url(#pattern21);fill-opacity:1;stroke:#000000;stroke-width:10;stroke-dasharray:none;stroke-opacity:1;paint-order:markers fill stroke" />
    <path
       d="m 384.298,357.147 c -0.198,1.274 -0.298,2.561 -0.298,3.85 v 10.313 c 0,3.533 1.273,6.948 3.587,9.618 v 0 c 2.79,3.221 6.842,5.072 11.103,5.072 h 20.556 c 6.145,0 11.937,-2.873 15.655,-7.766 v 0 c 0.731,-0.962 1.372,-1.989 1.914,-3.069 l 19.733,-39.274 c 0.964,-1.919 2.171,-3.706 3.593,-5.317 l 5.395,-6.115 C 470.282,319.081 477.109,316 484.282,316 h 32.371 c 4.971,0 9,-4.029 9,-9 v 0 c 0,-4.971 -4.029,-9 -9,-9 H 401.121 c -5.048,0 -9.141,4.092 -9.141,9.141 v 0 c 0,0.471 -0.036,0.941 -0.109,1.407 z"
       fill="#4f4f4f"
       id="path6"
       style="fill:url(#pattern23);fill-opacity:1;stroke:#000000;stroke-width:10;stroke-dasharray:none;stroke-opacity:1;paint-order:markers fill stroke"
       sodipodi:nodetypes="cssssssssccccsssssssscc" />
    <path
       d="m 437,367 c 0,33.689 27.311,61 61,61 33.689,0 61,-27.311 61,-61 0,-33.689 -27.311,-61 -61,-61 -33.689,0 -61,27.311 -61,61 z"
       fill="#4f4f4f"
       id="path7"
       style="fill:url(#pattern22);fill-opacity:1;stroke:#000000;stroke-width:10;stroke-dasharray:none;stroke-opacity:1;paint-order:markers fill stroke" />
  </g>
</svg>
